Coordinates
version=1
nRows=39
nColumns=38
inDegrees=no

Units are S.I. units (second, meters, Newtons, ...)
If the header above contains a line with 'inDegrees', this indicates whether rotational values are in degrees (yes) or radians (no).

endheader
time	pelvis_tilt	pelvis_list	pelvis_rotation	pelvis_tx	pelvis_ty	pelvis_tz	hip_flexion_r	hip_adduction_r	hip_rotation_r	knee_angle_r	ankle_angle_r	subtalar_angle_r	mtp_angle_r	hip_flexion_l	hip_adduction_l	hip_rotation_l	knee_angle_l	ankle_angle_l	subtalar_angle_l	mtp_angle_l	lumbar_extension	lumbar_bending	lumbar_rotation	arm_flex_r	arm_add_r	arm_rot_r	elbow_flex_r	pro_sup_r	wrist_flex_r	wrist_dev_r	arm_flex_l	arm_add_l	arm_rot_l	elbow_flex_l	pro_sup_l	wrist_flex_l	wrist_dev_l
5.03	0.1104	1.3537	1.33294	0.616697	1.76042	1.027	0.446338	0.000462244	0.0741795	1.13079	-0.229957	0	0	0.383686	-0.0642692	-0.242415	0.244128	-0.479412	0	0	0.147327	-0.084454	0.260865	0.433534	-0.48923	0.472892	1.29404	1.5708	0	0	0.801001	-0.181991	1.11795	1.03957	1.5708	0	0
5.04	0.116895	1.3524	1.32319	0.616234	1.7626	1.02741	0.461255	0.00212767	0.0740105	1.13164	-0.22298	0	0	0.38103	-0.0658289	-0.246116	0.242206	-0.477828	0	0	0.143019	-0.082883	0.259425	0.442654	-0.488049	0.478123	1.29063	1.5708	0	0	0.80266	-0.183599	1.11263	1.04096	1.5708	0	0
5.05	0.122435	1.3508	1.31453	0.615802	1.76476	1.02778	0.47578	0.00391832	0.0740526	1.12906	-0.216769	0	0	0.378425	-0.0671999	-0.249386	0.239387	-0.476735	0	0	0.139459	-0.0811546	0.257912	0.451806	-0.487027	0.484179	1.28678	1.5708	0	0	0.803938	-0.185119	1.10746	1.04198	1.5708	0	0
5.06	0.125887	1.34875	1.30802	0.615415	1.76683	1.02814	0.490223	0.00575839	0.0748157	1.12346	-0.2116	0	0	0.376512	-0.0681665	-0.252179	0.236276	-0.476238	0	0	0.136766	-0.0795293	0.256405	0.460992	-0.485816	0.490616	1.28238	1.5708	0	0	0.805116	-0.186623	1.10277	1.04258	1.5708	0	0
5.07	0.127938	1.34608	1.30301	0.615145	1.76885	1.02846	0.504552	0.00806003	0.0761462	1.11508	-0.207	0	0	0.375349	-0.069231	-0.254378	0.233864	-0.475601	0	0	0.134946	-0.0784496	0.255497	0.469027	-0.484402	0.495572	1.27835	1.5708	0	0	0.806831	-0.187728	1.09914	1.04285	1.5708	0	0
5.08	0.129662	1.34322	1.29855	0.614989	1.77087	1.02873	0.518135	0.0103145	0.0773303	1.10388	-0.202768	0	0	0.374206	-0.0704227	-0.255503	0.231117	-0.47489	0	0	0.133837	-0.0773731	0.254564	0.47676	-0.482736	0.500426	1.27386	1.5708	0	0	0.808851	-0.188821	1.09646	1.04266	1.5708	0	0
5.09	0.131237	1.34026	1.2944	0.614922	1.7729	1.02898	0.530917	0.0124989	0.0787116	1.08993	-0.199957	0	0	0.373002	-0.0716761	-0.255906	0.227838	-0.474394	0	0	0.133333	-0.0761024	0.253608	0.484481	-0.48105	0.505858	1.26895	1.5708	0	0	0.810785	-0.189864	1.09417	1.04195	1.5708	0	0
5.1	0.132859	1.33747	1.29	0.614906	1.77492	1.02924	0.542808	0.0146122	0.080517	1.07387	-0.19907	0	0	0.371511	-0.0730055	-0.255913	0.224489	-0.474183	0	0	0.132929	-0.0744616	0.252857	0.492534	-0.479593	0.512189	1.2638	1.5708	0	0	0.812611	-0.190804	1.09198	1.04076	1.5708	0	0
5.11	0.135076	1.3356	1.28501	0.614918	1.7769	1.02954	0.553021	0.016658	0.0823912	1.05632	-0.19952	0	0	0.368778	-0.0740898	-0.255449	0.220683	-0.474104	0	0	0.131184	-0.0731024	0.252767	0.500264	-0.478805	0.517628	1.25956	1.5708	0	0	0.815313	-0.191181	1.09047	1.03939	1.5708	0	0
5.12	0.136331	1.33389	1.28118	0.61495	1.77889	1.02983	0.562033	0.0183869	0.0838331	1.0368	-0.200378	0	0	0.365572	-0.0745935	-0.25471	0.216155	-0.47392	0	0	0.129716	-0.0719085	0.252595	0.507804	-0.477764	0.523002	1.25514	1.5708	0	0	0.818047	-0.191577	1.08946	1.03778	1.5708	0	0
5.13	0.136933	1.33213	1.27822	0.614999	1.7809	1.0301	0.570056	0.0197957	0.0851455	1.01528	-0.20146	0	0	0.362385	-0.0747747	-0.253951	0.211409	-0.473554	0	0	0.128633	-0.070659	0.252285	0.515283	-0.476684	0.528646	1.25066	1.5708	0	0	0.820568	-0.191963	1.08839	1.03604	1.5708	0	0
5.14	0.136652	1.33039	1.27643	0.615078	1.78292	1.03032	0.577224	0.0207435	0.0860744	0.992224	-0.202672	0	0	0.359273	-0.0746249	-0.253305	0.206576	-0.473195	0	0	0.127783	-0.0694343	0.251747	0.52265	-0.475536	0.534412	1.24615	1.5708	0	0	0.822909	-0.192576	1.08742	1.03446	1.5708	0	0
5.15	0.134699	1.32872	1.27662	0.615199	1.78499	1.03053	0.583605	0.0210834	0.0865056	0.967825	-0.204137	0	0	0.356207	-0.0739751	-0.252707	0.201355	-0.473549	0	0	0.12705	-0.0688806	0.251733	0.528698	-0.474759	0.538891	1.24264	1.5708	0	0	0.825386	-0.192758	1.08702	1.03273	1.5708	0	0
5.16	0.131579	1.32694	1.27832	0.61538	1.78706	1.0307	0.589183	0.0213968	0.0875103	0.94214	-0.205827	0	0	0.353318	-0.0730035	-0.251697	0.195606	-0.474822	0	0	0.127192	-0.0685167	0.251629	0.534421	-0.473768	0.543847	1.23861	1.5708	0	0	0.827734	-0.192922	1.08735	1.03032	1.5708	0	0
5.17	0.128565	1.325	1.28052	0.615619	1.78915	1.03081	0.593993	0.0215334	0.0873204	0.915961	-0.206757	0	0	0.351115	-0.0722453	-0.250987	0.191206	-0.475452	0	0	0.128066	-0.0681741	0.251263	0.539414	-0.472633	0.548507	1.23458	1.5708	0	0	0.830063	-0.193107	1.08848	1.02753	1.5708	0	0
5.18	0.126292	1.32311	1.2828	0.615894	1.79126	1.03088	0.597732	0.021468	0.0853162	0.889691	-0.207335	0	0	0.349363	-0.0716625	-0.250166	0.18803	-0.475221	0	0	0.12922	-0.0677279	0.250344	0.54398	-0.471381	0.553004	1.23072	1.5708	0	0	0.832382	-0.193403	1.09001	1.02458	1.5708	0	0
5.19	0.124162	1.32144	1.28568	0.616195	1.79343	1.03096	0.600221	0.0211692	0.0815679	0.863133	-0.207598	0	0	0.347954	-0.0709187	-0.249817	0.185744	-0.474877	0	0	0.130305	-0.0676119	0.249566	0.547183	-0.470243	0.555741	1.22763	1.5708	0	0	0.834902	-0.193249	1.09194	1.02135	1.5708	0	0
5.2	0.12213	1.31978	1.28918	0.616551	1.79563	1.03102	0.601771	0.0207381	0.0771231	0.836747	-0.207409	0	0	0.346947	-0.0701014	-0.249372	0.18389	-0.474783	0	0	0.131706	-0.0674568	0.248576	0.549544	-0.469022	0.557638	1.22483	1.5708	0	0	0.837479	-0.192853	1.09433	1.01761	1.5708	0	0
5.21	0.119287	1.31826	1.29411	0.616956	1.79787	1.03102	0.602525	0.0197231	0.0725949	0.811012	-0.206654	0	0	0.346255	-0.0690276	-0.249216	0.182764	-0.474574	0	0	0.13341	-0.0674919	0.247408	0.551381	-0.467719	0.559226	1.22221	1.5708	0	0	0.840052	-0.192277	1.09716	1.01336	1.5708	0	0
5.22	0.118026	1.31665	1.29832	0.617393	1.80015	1.03101	0.6023	0.0185927	0.0672996	0.785584	-0.205468	0	0	0.345937	-0.0684992	-0.248407	0.182725	-0.473699	0	0	0.135559	-0.0671358	0.24551	0.553124	-0.466333	0.561301	1.21921	1.5708	0	0	0.842465	-0.191784	1.10039	1.00882	1.5708	0	0
5.23	0.118242	1.31509	1.30174	0.617854	1.80248	1.03099	0.600961	0.0175043	0.0611987	0.761052	-0.204046	0	0	0.345831	-0.0682188	-0.247264	0.183242	-0.472572	0	0	0.137541	-0.0669007	0.243803	0.553598	-0.465531	0.561883	1.21742	1.5708	0	0	0.845277	-0.190715	1.10434	1.00409	1.5708	0	0
5.24	0.118281	1.31393	1.30571	0.618359	1.80487	1.03095	0.598677	0.0160418	0.0544962	0.737979	-0.202879	0	0	0.345455	-0.0677575	-0.246376	0.183858	-0.471731	0	0	0.139706	-0.0667547	0.241941	0.553772	-0.464509	0.5624	1.21532	1.5708	0	0	0.847937	-0.189549	1.10861	0.99882	1.5708	0	0
5.25	0.117779	1.3133	1.31042	0.618918	1.8073	1.03091	0.595443	0.0143221	0.0477351	0.716142	-0.201098	0	0	0.344456	-0.0670122	-0.245599	0.18417	-0.470592	0	0	0.141866	-0.0667525	0.240048	0.553904	-0.463398	0.563303	1.21293	1.5708	0	0	0.850421	-0.188218	1.11314	0.993024	1.5708	0	0
5.26	0.115965	1.31266	1.31651	0.619556	1.80976	1.03083	0.592154	0.012548	0.0413843	0.696021	-0.199393	0	0	0.343709	-0.0661418	-0.244526	0.185203	-0.469021	0	0	0.144115	-0.0670483	0.238381	0.553234	-0.462206	0.563241	1.21131	1.5708	0	0	0.852511	-0.186908	1.11716	0.987519	1.5708	0	0
5.27	0.113283	1.31215	1.32364	0.620242	1.81224	1.0307	0.588651	0.0106798	0.0349833	0.677488	-0.197808	0	0	0.34327	-0.0650572	-0.243397	0.187439	-0.467063	0	0	0.146167	-0.0682731	0.237348	0.55131	-0.461534	0.561641	1.21091	1.5708	0	0	0.855133	-0.185611	1.12225	0.98224	1.5708	0	0
5.28	0.109752	1.31189	1.33171	0.620996	1.81476	1.03053	0.584858	0.00869791	0.0281549	0.660728	-0.196317	0	0	0.342899	-0.0639311	-0.242704	0.190329	-0.464887	0	0	0.148357	-0.0699681	0.236299	0.549093	-0.460693	0.560053	1.21049	1.5708	0	0	0.857775	-0.185151	1.12805	0.977217	1.5708	0	0
5.29	0.104865	1.31194	1.34118	0.621822	1.8173	1.03032	0.580735	0.00642284	0.0209993	0.645713	-0.194509	0	0	0.342267	-0.0624742	-0.242022	0.19319	-0.462542	0	0	0.15093	-0.0718096	0.235662	0.54657	-0.459981	0.558663	1.20994	1.5708	0	0	0.860323	-0.183722	1.13415	0.971177	1.5708	0	0
5.3	0.099218	1.31208	1.35169	0.62271	1.81988	1.03008	0.576103	0.00391564	0.0140193	0.6322	-0.192503	0	0	0.341583	-0.0607524	-0.240829	0.19617	-0.459988	0	0	0.154007	-0.0735163	0.23534	0.543298	-0.459353	0.556691	1.20948	1.5708	0	0	0.862662	-0.180993	1.14044	0.963985	1.5708	0	0
5.31	0.0930322	1.31231	1.36289	0.623655	1.82252	1.02981	0.571012	0.00124661	0.00750737	0.620352	-0.191082	0	0	0.341042	-0.0589643	-0.239565	0.199918	-0.457104	0	0	0.157105	-0.0753776	0.235635	0.538779	-0.458821	0.552827	1.20987	1.5708	0	0	0.864921	-0.177074	1.14668	0.95639	1.5708	0	0
5.32	0.0861498	1.31291	1.37477	0.624661	1.82515	1.02951	0.565477	-0.00160844	0.00194863	0.610691	-0.191138	0	0	0.340524	-0.0571598	-0.238482	0.204721	-0.453801	0	0	0.159953	-0.077478	0.235881	0.534561	-0.45846	0.549621	1.2102	1.5708	0	0	0.867023	-0.173496	1.15277	0.949147	1.5708	0	0
5.33	0.0791828	1.31366	1.38698	0.625732	1.8278	1.02918	0.559735	-0.00460099	-0.00310891	0.603179	-0.193119	0	0	0.340183	-0.0555664	-0.237207	0.210369	-0.450011	0	0	0.162748	-0.0798024	0.235505	0.530864	-0.458016	0.547507	1.21034	1.5708	0	0	0.868693	-0.17159	1.15865	0.943063	1.5708	0	0
5.34	0.0719821	1.31438	1.39973	0.626871	1.83047	1.02883	0.553843	-0.00759596	-0.00774894	0.597143	-0.197272	0	0	0.340223	-0.0541579	-0.235636	0.216689	-0.446228	0	0	0.165648	-0.0821809	0.234569	0.527417	-0.457432	0.546048	1.21055	1.5708	0	0	0.869877	-0.170933	1.16404	0.937833	1.5708	0	0
5.35	0.0649218	1.31606	1.41264	0.628065	1.83307	1.0285	0.54684	-0.0105721	-0.011717	0.592504	-0.203176	0	0	0.339654	-0.0528058	-0.233496	0.223727	-0.441986	0	0	0.167345	-0.084583	0.233858	0.523865	-0.457068	0.543916	1.21116	1.5708	0	0	0.87133	-0.168819	1.16914	0.931781	1.5708	0	0
5.36	0.0567684	1.31784	1.42696	0.629327	1.83566	1.02812	0.539695	-0.0136832	-0.0148391	0.589079	-0.208593	0	0	0.339319	-0.0512293	-0.230661	0.231369	-0.437187	0	0	0.169368	-0.0868782	0.233023	0.520432	-0.456768	0.542395	1.21144	1.5708	0	0	0.872641	-0.165835	1.17452	0.924908	1.5708	0	0
5.37	0.0474448	1.31938	1.44273	0.630645	1.83821	1.02765	0.532848	-0.0168788	-0.0170336	0.586002	-0.211257	0	0	0.339603	-0.0494295	-0.227752	0.2396	-0.433092	0	0	0.172019	-0.0891902	0.231953	0.517407	-0.456686	0.542161	1.21131	1.5708	0	0	0.873856	-0.162785	1.18035	0.917684	1.5708	0	0
5.38	0.0357349	1.32131	1.46047	0.631999	1.84068	1.02716	0.526144	-0.0205118	-0.0186552	0.582713	-0.211239	0	0	0.339536	-0.0471255	-0.225775	0.247943	-0.430416	0	0	0.174263	-0.0918479	0.231107	0.51509	-0.456571	0.542717	1.21104	1.5708	0	0	0.875338	-0.159947	1.18644	0.910352	1.5708	0	0
5.39	0.0222288	1.32341	1.48006	0.633368	1.84305	1.02666	0.519612	-0.0244866	-0.0204636	0.578658	-0.209873	0	0	0.339422	-0.0441439	-0.223241	0.256486	-0.427489	0	0	0.175884	-0.0951701	0.230535	0.512471	-0.456632	0.542309	1.21154	1.5708	0	0	0.877405	-0.157323	1.19303	0.903344	1.5708	0	0
5.4	0.00855395	1.32503	1.5003	0.63469	1.84537	1.02616	0.513509	-0.0286316	-0.0231871	0.573839	-0.20815	0	0	0.339719	-0.0405906	-0.219016	0.264929	-0.420992	0	0	0.177864	-0.0983073	0.229549	0.509737	-0.45678	0.54179	1.21221	1.5708	0	0	0.879417	-0.15479	1.19981	0.896308	1.5708	0	0
5.41	-0.00413135	1.3258	1.51957	0.636064	1.8476	1.02569	0.508959	-0.0322717	-0.0272674	0.57065	-0.205377	0	0	0.340724	-0.0372019	-0.214387	0.272825	-0.413547	0	0	0.18055	-0.100982	0.228546	0.506945	-0.45706	0.541489	1.21305	1.5708	0	0	0.881221	-0.152254	1.20647	0.889252	1.5708	0	0
